<?xml version="1.0" encoding="utf-8"?>
<!-- Generator: Adobe Illustrator 18.1.0, SVG Export Plug-In . SVG Version: 6.00 Build 0)  -->
<!DOCTYPE svg PUBLIC "-//W3C//DTD SVG 1.1//EN" "http://www.w3.org/Graphics/SVG/1.1/DTD/svg11.dtd">
<svg version="1.1" id="Layer_1" xmlns="http://www.w3.org/2000/svg" xmlns:xlink="http://www.w3.org/1999/xlink" x="0px" y="0px"
	 viewBox="0 0 420.2 560" enable-background="new 0 0 420.2 560" xml:space="preserve">
<path fill="#D8C0B6" stroke="#000000" stroke-width="4" stroke-miterlimit="10" d="M48.2,389.9c0,0-20.8,2.7-13.8-15.2
	c7-17.8,19.3-11.5,19.3-11.5l6-19.2c0,0-19.2-12.9-42.9,18.7s11.9,56.1,30.1,40.4L48.2,389.9z"/>
<path fill="#D8C0B6" stroke="#000000" stroke-width="4" stroke-miterlimit="10" d="M137.7,522c0,0-14.9,15.7,4.6,25.8
	c14.5,7.5,25.4,0,25.4,0s11.3,10,18-1.7c1.9-3.3,16.3,4.5,20.2,0.2c15.8-16.8-1.7-28.6-1.7-28.6L137.7,522z"/>
<path fill="#D8C0B6" stroke="#000000" stroke-width="4" stroke-miterlimit="10" d="M289,509.3c0,0-14.2,26.2,5.1,32.4
	c19.3,6.1,21.2-9.1,21.2-9.1s18,12,20.5-9c12.2,3.3,42.5-16,3.5-36.7L289,509.3z"/>
<path fill="#D8C0B6" stroke="#000000" stroke-width="4" stroke-miterlimit="10" d="M74.8,308.2c0,0-52.7,101.9-12.4,148.4
	s71.9,76.3,110.5,69.3c38.6-7,36.8-16.7,97.4-14.9c60.5,1.8,164.4-72.3,102.3-184.7L74.8,308.2z"/>
<path fill="#ED1C24" stroke="#000000" stroke-width="4" stroke-linejoin="round" stroke-miterlimit="10" d="M80.1,323.4
	c0,0,45.9,113,133,113S356,379,373.6,330.7L80.1,323.4z"/>
<path fill="#D8C0B6" stroke="#000000" stroke-width="4" stroke-miterlimit="10" d="M73.1,304.1c0,0,48.1,126.1,155.1,114.7
	c107-11.4,184-100.6,129.5-148.5L343,172.4l-50-40l-191.3,45.3L65,224.4L73.1,304.1z"/>
<g id="_x37_UWOZ6.tif" display="none">
	
		<image display="inline" overflow="visible" width="1284" height="1228" id="Layer_0_1_" xlink:href="839067C265A37C69.png"  transform="matrix(-6.734500e-11 -0.5 0.5 -6.734500e-11 -99.7096 651.0804)">
	</image>
</g>
<path fill="#55463D" stroke="#000000" stroke-width="4" stroke-linecap="round" stroke-linejoin="round" stroke-miterlimit="10" d="
	M124.3,182.4c0,0-27.6-32.9-38.1-22.4s-8.7,20.6-27.2,24.6c-45.6,9.6,2.8,127.5-14.9,138.6c0,0,63.2-35.1,55.3-57
	c-9-25.1,3.5-62.3,3.5-62.3L124.3,182.4z"/>
<path fill="none" stroke="#000000" stroke-width="4" stroke-linecap="round" stroke-linejoin="round" stroke-miterlimit="10" d="
	M79.6,318.3c0,0,9.2,104.1,67.1,133.9"/>
<path fill="none" stroke="#000000" stroke-width="4" stroke-linecap="round" stroke-linejoin="round" stroke-miterlimit="10" d="
	M379.7,340.2c0,0-1.4,48-31.2,74.3"/>
<path fill="#D8C0B6" stroke="#000000" stroke-width="4" stroke-miterlimit="10" d="M51.1,436.4c0,0-18.4,30.6,0,44.2s29-4.3,29-4.3
	L51.1,436.4z"/>
<path fill="#55463D" stroke="#000000" stroke-width="4" stroke-linecap="round" stroke-linejoin="round" stroke-miterlimit="10" d="
	M229.1,308.2c0,0,20.2,22.7,62.3,10.1s-2.9,54.4-26.4,67c-23.6,12.6-99.5,21.7-136.7-33.1c-23-33.8,62.4-4.6,72.8-39.5"/>
<path fill="#55463D" d="M131.6,353.6c0,0,29.7,21.4,59.2,22.4c29.5,1,91.1,3,110.8-39L131.6,353.6z"/>
<path fill="#E2A6AA" stroke="#000000" stroke-width="4" stroke-miterlimit="10" d="M267.7,359.8c29.8,36.7-24.8,51.9-63.4,48.2
	c-38.7-3.7-16-41.6-16-41.6l17.8-29.4l23.1-5.7L267.7,359.8z"/>
<path fill="#55463D" d="M281.8,270.3c-5-5.8-19.9-36.5,2.2-43.3c22.1-6.8,34-2.3,37.6,4.5c9.5,18.3-4.2,34.6-7.2,36.2L281.8,270.3z"
	/>
<path fill="none" stroke="#D88490" stroke-width="4" stroke-miterlimit="10" d="M221.9,345.2c0,0-5.3,29.9,2.5,52.5"/>
<path fill="#55463D" stroke="#000000" stroke-width="4" stroke-linecap="round" stroke-linejoin="round" stroke-miterlimit="10" d="
	M218,323.6c0,0,12.6,47.5-29.7,42.8c-41.8-4.6-60-14.3-60-14.3"/>
<path fill="#55463D" d="M155.8,280.8c0,0,17.9-49.9-31.5-44.1c-33.3,3.9-4.8,42.6-4.8,42.6L155.8,280.8z"/>
<path fill="#55463D" stroke="#000000" stroke-width="4" stroke-linecap="round" stroke-linejoin="round" stroke-miterlimit="10" d="
	M307.9,330.1c-34.3,41-82.3,44.6-88.2,7l-2.2-18.8L231,310c0,0,18.8,19.6,60.5,8.3C320.7,310.3,307.9,330.1,307.9,330.1z"/>
<circle stroke="#000000" stroke-width="4" stroke-linejoin="round" stroke-miterlimit="10" cx="137" cy="270.3" r="18.8"/>
<circle stroke="#000000" stroke-width="4" stroke-linejoin="round" stroke-miterlimit="10" cx="297.4" cy="256.6" r="18.8"/>
<path fill="none" stroke="#000000" stroke-width="4" stroke-linecap="round" stroke-linejoin="round" stroke-miterlimit="10" d="
	M141,224.4c0,0,27.4,1.3,30,27.1c3.1,29.9-31.7,37.7-31.7,37.7"/>
<path fill="#55463D" stroke="#000000" stroke-width="4" stroke-linecap="round" stroke-linejoin="round" stroke-miterlimit="10" d="
	M333.5,276.7c0,0,36,11.7,56.1-36.3s49.1-65.9-36-91.1S379.2,197.8,333.5,276.7z"/>
<path fill="none" stroke="#000000" stroke-width="4" stroke-linecap="round" stroke-linejoin="round" stroke-miterlimit="10" d="
	M297.4,275.5c0,0-26.1,3.5-38.1-24s19.3-40.4,19.3-40.4"/>
<path fill="#1E1B17" stroke="#000000" stroke-width="4" stroke-linejoin="round" stroke-miterlimit="10" d="M122,129.9
	c0,0-15.5-79,38.7-111s95.4,15,93.8,44c0,0-18.1-29-42.3,10c0,0,22.1-13,38.9,11c0,0,27.1-6,37,24c0,0,53.9,16.1,43.9,72
	c0,0-17.7-40.6-57.3-29.8s-31.7,24.1-44.7,55s-22,37.3-57.4,4.5c-35.6-33-73.6-18.9-76.3,28.2C96.3,237.8,61.7,134.8,122,129.9z"/>
<ellipse transform="matrix(-0.9818 0.1898 -0.1898 -0.9818 486.5556 576.3288)" fill="#55463D" stroke="#000000" stroke-width="4" stroke-linecap="round" stroke-linejoin="round" stroke-miterlimit="10" cx="215.7" cy="311.5" rx="17.3" ry="12.3"/>
<circle fill="#FFFFFF" cx="129.4" cy="260.5" r="3.4"/>
<circle fill="#FFFFFF" cx="209.5" cy="308" r="2.2"/>
<circle fill="#FFFFFF" cx="287.4" cy="251.5" r="3.4"/>
<path fill="#ED1C24" stroke="#000000" stroke-width="4" stroke-miterlimit="10" d="M280.1,419.6c0,0-30.2,18.8-16,55
	C264.1,474.6,288.4,473.6,280.1,419.6z"/>
<path fill="#ED1C24" stroke="#000000" stroke-width="4" stroke-miterlimit="10" d="M291.5,475.3c0,0,21.5-11.3-9.3-56.5
	C282.2,418.8,263.1,448.8,291.5,475.3"/>
<ellipse transform="matrix(-0.9588 0.2841 -0.2841 -0.9588 499.099 564.165)" cx="208.6" cy="318.3" rx="3" ry="4.2"/>
<ellipse cx="224.4" cy="315.7" rx="3" ry="4.2"/>
<path fill="#ED1C24" stroke="#000000" stroke-width="4" stroke-miterlimit="10" d="M287.4,402.1c-13.1,0-24.8,7.1-19.1,15.5
	c5.7,8.3,15,14.4,22.5,10.5S287.4,402.1,287.4,402.1z"/>
<path fill="#FFFFFF" d="M187,21.1c0,0-71,23.3-54.2,111.3c0,0-1-34.7,13.9-55.7c0,0-5.7,50.3,3.6,75c0,0-4.7-40.7,16-78.7
	c0,0-9.9,23.3,7.7,59.3c0,0-5.7-28,12.9-46c0,0-7.5,26,11.6,46c0,0-7.6-86,37.7-86.7c0,0-25.3-6-44,21.3c0,0-7.4-30.7,24.3-46
	c0,0-26.3,0.7-49,43.3C167.6,64.4,160.3,36.4,187,21.1z"/>
<path fill="#FFFFFF" d="M236.3,86.4c0,0-23.9,9.3-15.9,52.7c0,0,2.9-16.7,12.4-26.3c0,0-5.2,18.3,6.2,39c0,0-2-8,7.3-13.3
	c0,0-1.2,7.7,4,13.3c0,0-4.1-40.7,28.3-50c0,0-24.8-1.5-35,17.3c0,0,2.1-23.1,16.7-26.7c0,0-19.5-6-33.4,17.3
	C226.9,109.7,228.4,96.7,236.3,86.4z"/>
<path fill="#EFC2C7" d="M205.5,394.3c0,0,23.1,7.4,44.7-1.9C250.3,392.4,229.7,413.6,205.5,394.3z"/>
<path fill="#FFFFFF" d="M122.2,276.1c0,0,4.1,11.7,14.3,11.7s14.6-9.8,14.6-9.8s-4.8,8.3-14.4,8.3S122.2,276.1,122.2,276.1z"/>
<path fill="#FFFFFF" d="M282.2,261.6c0,0,4.3,12.3,15,12.3s15.4-10.4,15.4-10.4s-5.1,8.7-15.2,8.7S282.2,261.6,282.2,261.6z"/>
</svg>
